<svg preserveAspectRatio="none" width="100%" height="100%" overflow="visible" style="display: block;" viewBox="0 0 24 17" fill="none" xmlns="http://www.w3.org/2000/svg">
<path id="Vector - 0" fill-rule="evenodd" clip-rule="evenodd" d="M21 16.25C21 16.6642 20.6642 17 20.25 17H6.75C6.33579 17 6 16.6642 6 16.25C6 15.8358 6.33579 15.5 6.75 15.5H20.25C20.6642 15.5 21 15.8358 21 16.25V16.25ZM19.5 5H13.8112L9.53063 0.719375C9.38985 0.578759 9.19897 0.499844 9 0.5H8.25C7.76797 0.500266 7.31544 0.732163 7.03371 1.12328C6.75198 1.5144 6.67537 2.01709 6.82781 2.47437L7.67156 5H5.56125L3.53063 2.96938C3.38985 2.82876 3.19897 2.74984 3 2.75H2.25C1.77604 2.75043 1.33016 2.97484 1.04744 3.35524C0.764723 3.73565 0.678423 4.2273 0.814687 4.68125L2.13375 9.07719C2.60273 10.6681 4.06672 11.7576 5.72531 11.75H22.5C22.9142 11.75 23.25 11.4142 23.25 11V8.75C23.25 6.67893 21.5711 5 19.5 5V5Z" fill="var(--fill-0, #121417)"/>
</svg>
